<svg width="497" height="322" fill="none" xmlns="http://www.w3.org/2000/svg"><path fill="#fff" d="M0 0h497v322H0z"/><path d="M71.25 99.125H48.625V82.187H71.25c3.083 0 5.583-.52 7.5-1.562 1.917-1.042 3.313-2.48 4.188-4.313.916-1.874 1.374-3.979 1.374-6.312 0-2.5-.458-4.813-1.374-6.938a11.2 11.2 0 00-4.188-5.124c-1.917-1.334-4.417-2-7.5-2H56.875V130H34.937V39H71.25c7.292 0 13.563 1.333 18.813 4 5.291 2.667 9.354 6.333 12.187 11 2.833 4.625 4.25 9.917 4.25 15.875 0 5.875-1.417 11-4.25 15.375s-6.896 7.792-12.188 10.25c-5.25 2.417-11.52 3.625-18.812 3.625zm107.188 14V130h-46v-16.875h46zM140.25 39v91h-21.938V39h21.938zm87.25 19.125L205.312 130H181.75l33.438-91h14.937L227.5 58.125zM245.875 130l-22.25-71.875L220.75 39h15.125l33.625 91h-23.625zM245 96.062V113h-46.688V96.062H245zm78.062 9.75c0-1.416-.208-2.687-.624-3.812-.417-1.167-1.188-2.25-2.313-3.25-1.125-1-2.75-2-4.875-3-2.083-1.042-4.833-2.125-8.25-3.25a123.23 123.23 0 01-11.562-4.5c-3.709-1.708-7.021-3.688-9.938-5.938-2.917-2.291-5.229-4.958-6.938-8-1.708-3.083-2.562-6.666-2.562-10.75 0-3.916.875-7.437 2.625-10.562 1.75-3.167 4.187-5.854 7.313-8.063 3.166-2.25 6.874-3.958 11.124-5.124 4.25-1.209 8.896-1.813 13.938-1.813 6.667 0 12.542 1.167 17.625 3.5 5.125 2.292 9.125 5.563 12 9.813C343.542 55.27 345 60.25 345 66h-21.812c0-2.292-.48-4.313-1.438-6.063-.917-1.75-2.312-3.124-4.188-4.124-1.874-1-4.229-1.5-7.062-1.5-2.75 0-5.062.416-6.938 1.25-1.874.833-3.291 1.958-4.25 3.374a7.804 7.804 0 00-1.437 4.563c0 1.375.375 2.625 1.125 3.75.792 1.083 1.896 2.104 3.312 3.063 1.459.958 3.209 1.874 5.25 2.75 2.084.874 4.417 1.729 7 2.562 4.834 1.542 9.126 3.27 12.876 5.188 3.791 1.874 6.979 4.02 9.562 6.437 2.625 2.375 4.604 5.083 5.938 8.125 1.374 3.042 2.062 6.479 2.062 10.313 0 4.083-.792 7.708-2.375 10.874-1.583 3.167-3.854 5.855-6.813 8.063-2.958 2.167-6.5 3.813-10.624 4.937-4.126 1.126-8.73 1.688-13.813 1.688-4.667 0-9.271-.583-13.813-1.75-4.5-1.208-8.583-3.042-12.25-5.5-3.666-2.5-6.604-5.688-8.812-9.562-2.167-3.917-3.25-8.563-3.25-13.938h22c0 2.667.354 4.917 1.062 6.75.709 1.833 1.75 3.312 3.126 4.438 1.374 1.083 3.062 1.874 5.062 2.374 2 .459 4.292.688 6.875.688 2.792 0 5.042-.396 6.75-1.188 1.708-.833 2.958-1.916 3.75-3.25.792-1.374 1.187-2.874 1.187-4.5zM400.375 39v91h-21.937V39h21.937zm27.375 0v16.938h-76.062V39h76.062zm32.625 0v91H438.5V39h21.875zM71.25 249.125H48.625v-16.937H71.25c3.083 0 5.583-.521 7.5-1.563 1.917-1.042 3.313-2.479 4.188-4.313.916-1.874 1.374-3.979 1.374-6.312 0-2.5-.458-4.812-1.374-6.938a11.2 11.2 0 00-4.188-5.124c-1.917-1.334-4.417-2-7.5-2H56.875V280H34.937v-91H71.25c7.292 0 13.563 1.333 18.813 4 5.291 2.667 9.354 6.333 12.187 11 2.833 4.625 4.25 9.917 4.25 15.875 0 5.875-1.417 11-4.25 15.375s-6.896 7.792-12.188 10.25c-5.25 2.417-11.52 3.625-18.812 3.625zm74.5-41L123.562 280H100l33.438-91h14.937l-2.625 19.125zM164.125 280l-22.25-71.875L139 189h15.125l33.625 91h-23.625zm-.875-33.938V263h-46.688v-16.938h46.688zM216.375 189v91h-21.937v-91h21.937zm54.313 0l-35.25 46.125-20.626 22.563-4-20.126 13.188-20L243.625 189h27.063zm-25.938 91l-23.5-41 17.062-12.562L270.688 280H244.75z" fill="#004D90"/><path d="M362.195 185.699V187h-13.57v-1.301h13.57zm-12.937-24.293V187h-1.442v-25.594h1.442zm18.439 6.574V187h-1.406v-19.02h1.406zm-1.845-5.765c0-.317.105-.586.316-.809.223-.234.504-.351.844-.351.328 0 .603.117.826.351a1.1 1.1 0 01.334.809c0 .316-.111.586-.334.808a1.156 1.156 0 01-.826.317 1.18 1.18 0 01-.844-.317 1.13 1.13 0 01-.316-.808zm9.158 9.791V187h-1.406v-19.02h1.371l.035 4.026zm-.229 4.025l-.703-.808a9.996 9.996 0 01.703-2.883 8.611 8.611 0 011.53-2.426 7.247 7.247 0 012.267-1.67c.879-.41 1.858-.615 2.936-.615.949 0 1.798.129 2.548.387a4.656 4.656 0 011.934 1.177c.527.528.932 1.219 1.213 2.075.281.855.422 1.88.422 3.076V187h-1.406v-12.621c0-1.43-.211-2.537-.633-3.322-.422-.786-1.008-1.336-1.758-1.653-.75-.328-1.611-.492-2.584-.492-1.148 0-2.127.252-2.936.756a6.36 6.36 0 00-1.986 1.881 8.741 8.741 0 00-1.125 2.338c-.246.808-.387 1.523-.422 2.144zm12.832-1.564l-.949-.334c.094-.856.334-1.67.721-2.444a7.337 7.337 0 011.564-2.074 7.207 7.207 0 012.268-1.441c.879-.363 1.851-.545 2.918-.545.972 0 1.84.135 2.601.404a4.431 4.431 0 011.934 1.248c.527.563.932 1.289 1.213 2.18.281.879.422 1.945.422 3.199V187h-1.407v-12.357c0-1.5-.21-2.666-.632-3.498-.422-.833-1.008-1.413-1.758-1.741-.75-.34-1.617-.504-2.602-.492-1.043.012-1.951.205-2.724.58-.774.375-1.418.85-1.934 1.424a6.566 6.566 0 00-1.178 1.811c-.269.621-.422 1.201-.457 1.74zm19.916-6.487V187h-1.406v-19.02h1.406zm-1.845-5.765c0-.317.105-.586.316-.809.223-.234.504-.351.844-.351.328 0 .603.117.826.351a1.1 1.1 0 01.334.809c0 .316-.111.586-.334.808a1.156 1.156 0 01-.826.317 1.18 1.18 0 01-.844-.317 1.13 1.13 0 01-.316-.808zm14.66 5.765v1.266h-9.106v-1.266h9.106zm-5.59-5.027h1.406v19.459c0 1.02.123 1.793.369 2.32.258.516.592.868 1.002 1.055a3.48 3.48 0 001.354.264c.34 0 .65-.018.931-.053.293-.035.586-.076.879-.123l.123 1.23a4.63 4.63 0 01-1.002.176c-.41.047-.773.071-1.089.071-.797 0-1.495-.147-2.092-.44-.598-.293-1.061-.797-1.389-1.512-.328-.726-.492-1.722-.492-2.988v-19.459zm17.35 24.399c-1.196 0-2.303-.229-3.323-.686a8.288 8.288 0 01-2.672-1.951c-.761-.844-1.359-1.84-1.793-2.988-.421-1.149-.632-2.409-.632-3.78v-.773c0-1.418.211-2.707.632-3.867.434-1.172 1.02-2.18 1.758-3.024a7.745 7.745 0 012.549-1.969 7.227 7.227 0 013.111-.685c1.114 0 2.121.205 3.024.615.902.41 1.676.985 2.32 1.723.645.738 1.137 1.617 1.477 2.637.34 1.019.509 2.144.509 3.375v1.177h-14.502v-1.283h13.114v-.228c-.012-1.196-.258-2.303-.738-3.323-.469-1.019-1.143-1.84-2.022-2.461-.879-.632-1.939-.949-3.182-.949-.996 0-1.904.211-2.724.633a6.381 6.381 0 00-2.092 1.758c-.586.738-1.037 1.611-1.354 2.619-.316.996-.474 2.08-.474 3.252v.773c0 1.125.176 2.18.527 3.164a8.345 8.345 0 001.477 2.602 6.994 6.994 0 002.232 1.74c.856.422 1.793.633 2.813.633 1.101 0 2.109-.193 3.023-.58.914-.387 1.746-1.067 2.496-2.039l.914.685a7.726 7.726 0 01-1.529 1.635c-.598.481-1.307.861-2.127 1.143-.809.281-1.746.422-2.812.422zm23.906-4.043V160h1.388v27h-1.336l-.052-3.691zm-13.465-5.643v-.369c0-1.488.164-2.824.492-4.008.328-1.195.803-2.209 1.424-3.041a6.284 6.284 0 012.268-1.934c.902-.457 1.921-.685 3.058-.685 1.067 0 2.016.17 2.848.51a6.147 6.147 0 012.162 1.423 7.515 7.515 0 011.494 2.163c.398.82.691 1.728.879 2.724v6.557a8.51 8.51 0 01-.791 2.478 7.023 7.023 0 01-1.494 2.022 6.627 6.627 0 01-2.197 1.353c-.856.329-1.834.493-2.936.493-1.125 0-2.133-.235-3.023-.704a6.535 6.535 0 01-2.268-1.986c-.621-.855-1.096-1.875-1.424-3.058-.328-1.184-.492-2.497-.492-3.938zm1.424-.369v.369c0 1.207.117 2.32.351 3.34.246 1.019.61 1.904 1.09 2.654a5.395 5.395 0 001.846 1.758c.75.422 1.629.633 2.637.633 1.289 0 2.378-.235 3.269-.703.891-.469 1.6-1.09 2.127-1.864a7.213 7.213 0 001.125-2.566v-6.205a10.798 10.798 0 00-.615-1.899 6.914 6.914 0 00-1.143-1.898c-.48-.586-1.107-1.061-1.881-1.424-.773-.375-1.722-.562-2.847-.562-1.02 0-1.905.211-2.655.632a5.392 5.392 0 00-1.845 1.758c-.492.75-.862 1.635-1.108 2.655a14.838 14.838 0 00-.351 3.322zM361 227.699V229h-13.57v-1.301H361zm-12.938-24.293V229h-1.441v-25.594h1.441zm18.44 6.574V229h-1.406v-19.02h1.406zm-1.846-5.765c0-.317.106-.586.317-.809.222-.234.504-.351.843-.351.329 0 .604.117.827.351.222.223.334.492.334.809 0 .316-.112.586-.334.808a1.156 1.156 0 01-.827.317c-.339 0-.621-.106-.843-.317a1.131 1.131 0 01-.317-.808zm19.705 21.287v-9.826c0-.996-.211-1.852-.632-2.567-.422-.714-1.038-1.259-1.846-1.634-.809-.387-1.799-.58-2.971-.58-1.09 0-2.068.193-2.935.58-.856.375-1.53.89-2.022 1.546a3.577 3.577 0 00-.738 2.198l-1.406-.018c0-.726.169-1.424.509-2.092a5.73 5.73 0 011.477-1.775 7.443 7.443 0 012.267-1.248c.879-.305 1.84-.457 2.883-.457 1.336 0 2.514.228 3.533.685 1.032.446 1.834 1.12 2.409 2.022.574.902.861 2.027.861 3.375v9.387c0 .679.047 1.365.141 2.056.093.692.222 1.248.386 1.67V229h-1.529a9.846 9.846 0 01-.299-1.635 20.795 20.795 0 01-.088-1.863zm.457-7.295l.036 1.213h-4.641c-1.172 0-2.221.111-3.147.334-.925.223-1.711.539-2.355.949-.645.41-1.137.897-1.477 1.459a3.607 3.607 0 00-.509 1.899c0 .726.193 1.394.58 2.003.386.61.931 1.096 1.634 1.459.704.352 1.518.528 2.444.528 1.265 0 2.385-.217 3.357-.651.985-.445 1.811-1.043 2.479-1.793a7.094 7.094 0 001.459-2.636l.615 1.019a7.578 7.578 0 01-.932 1.881 7.58 7.58 0 01-1.634 1.74c-.668.516-1.454.938-2.356 1.266-.902.316-1.928.475-3.076.475-1.207 0-2.262-.223-3.164-.668-.891-.457-1.582-1.079-2.074-1.864-.493-.797-.739-1.705-.739-2.724 0-.879.2-1.682.598-2.408.398-.727.973-1.348 1.723-1.864.761-.527 1.681-.926 2.759-1.195 1.09-.281 2.315-.422 3.674-.422h4.746zM391.656 202h1.406v23.309L393.01 229h-1.354v-27zm14.871 17.297v.369c0 1.441-.164 2.754-.492 3.938-.316 1.183-.785 2.203-1.406 3.058a6.376 6.376 0 01-2.25 1.986c-.891.469-1.904.704-3.041.704-1.09 0-2.068-.164-2.936-.493a6.82 6.82 0 01-2.214-1.353 7.273 7.273 0 01-1.512-2.022 9.263 9.263 0 01-.791-2.478v-6.557a11.27 11.27 0 01.896-2.724 7.81 7.81 0 011.512-2.163 6.147 6.147 0 012.162-1.423c.844-.34 1.793-.51 2.848-.51 1.148 0 2.168.228 3.058.685a6.092 6.092 0 012.268 1.934c.621.832 1.09 1.846 1.406 3.041.328 1.184.492 2.52.492 4.008zm-1.423.369v-.369c0-1.195-.118-2.303-.352-3.322-.234-1.02-.598-1.905-1.09-2.655a5.191 5.191 0 00-1.846-1.758c-.75-.421-1.634-.632-2.654-.632-1.125 0-2.074.187-2.848.562-.761.363-1.388.838-1.88 1.424a7.502 7.502 0 00-1.143 1.898c-.27.668-.469 1.301-.598 1.899v6.205c.211.926.58 1.781 1.108 2.566.539.774 1.254 1.395 2.144 1.864.903.468 1.987.703 3.252.703 1.008 0 1.881-.211 2.619-.633a5.191 5.191 0 001.846-1.758c.481-.75.838-1.635 1.072-2.654.246-1.02.37-2.133.37-3.34zm8.05-9.686V229h-1.406v-19.02h1.406zm-1.845-5.765c0-.317.105-.586.316-.809.223-.234.504-.351.844-.351.328 0 .603.117.826.351a1.1 1.1 0 01.334.809c0 .316-.111.586-.334.808a1.156 1.156 0 01-.826.317 1.18 1.18 0 01-.844-.317 1.13 1.13 0 01-.316-.808zm9.545-2.215v27h-1.407v-27h1.407zm7.699 7.98V229h-1.407v-19.02h1.407zm-1.846-5.765c0-.317.105-.586.316-.809.223-.234.504-.351.844-.351.328 0 .604.117.826.351a1.1 1.1 0 01.334.809c0 .316-.111.586-.334.808a1.154 1.154 0 01-.826.317 1.18 1.18 0 01-.844-.317 1.13 1.13 0 01-.316-.808zm14.66 5.765v1.266h-9.105v-1.266h9.105zm-5.59-5.027h1.407v19.459c0 1.02.123 1.793.369 2.32.258.516.592.868 1.002 1.055a3.48 3.48 0 001.353.264c.34 0 .651-.018.932-.053.293-.035.586-.076.879-.123l.123 1.23a4.652 4.652 0 01-1.002.176c-.41.047-.774.071-1.09.071-.797 0-1.494-.147-2.092-.44-.597-.293-1.06-.797-1.388-1.512-.329-.726-.493-1.722-.493-2.988v-19.459zm16.119 22.184l6.329-17.157h1.529l-8.297 22.131c-.152.422-.346.891-.58 1.407a7.196 7.196 0 01-.914 1.511 4.28 4.28 0 01-1.459 1.178c-.586.316-1.313.475-2.18.475-.199 0-.463-.024-.791-.071-.316-.035-.551-.082-.703-.14l-.018-1.231c.165.035.381.065.651.088.269.035.457.053.562.053.774 0 1.418-.152 1.934-.457a3.67 3.67 0 001.318-1.266 9.418 9.418 0 00.932-1.916l1.687-4.605zm-6.521-17.157l6.75 17.28.404 1.441-1.072.668-7.611-19.389h1.529zm-108.018 53.127h1.424c-.176 1.793-.656 3.305-1.441 4.536a7.578 7.578 0 01-3.164 2.777c-1.313.621-2.86.932-4.641.932-1.418 0-2.707-.27-3.867-.809a8.79 8.79 0 01-2.971-2.32c-.82-1.008-1.453-2.209-1.898-3.604-.445-1.394-.668-2.935-.668-4.623v-3.586c0-1.699.223-3.24.668-4.623.445-1.394 1.078-2.59 1.898-3.586a8.447 8.447 0 012.989-2.32c1.171-.551 2.478-.826 3.919-.826 1.747 0 3.276.31 4.588.931a7.432 7.432 0 013.147 2.778c.785 1.218 1.265 2.724 1.441 4.517h-1.424c-.175-1.488-.58-2.742-1.212-3.761a6.081 6.081 0 00-2.567-2.356c-1.09-.539-2.414-.809-3.973-.809-1.23 0-2.337.241-3.322.721a7.078 7.078 0 00-2.531 2.039c-.703.879-1.248 1.934-1.635 3.164-.375 1.219-.562 2.584-.562 4.096v3.621c0 1.488.187 2.854.562 4.096.375 1.23.908 2.291 1.6 3.181a7.338 7.338 0 002.513 2.057c.985.481 2.086.721 3.305.721 1.559 0 2.889-.246 3.99-.739a5.83 5.83 0 002.602-2.302c.644-1.031 1.055-2.332 1.23-3.903zm5.256-1.283v-.668c0-1.394.199-2.672.598-3.832.41-1.16.984-2.162 1.723-3.006a7.695 7.695 0 012.636-1.986c1.032-.469 2.174-.703 3.428-.703s2.397.234 3.428.703a7.649 7.649 0 012.654 1.986c.75.844 1.324 1.846 1.723 3.006.398 1.16.597 2.438.597 3.832v.668c0 1.395-.199 2.672-.597 3.832-.399 1.16-.967 2.168-1.705 3.024a7.742 7.742 0 01-2.655 1.968c-1.019.469-2.156.704-3.41.704-1.265 0-2.414-.235-3.445-.704a7.962 7.962 0 01-2.654-1.968c-.739-.856-1.313-1.864-1.723-3.024-.399-1.16-.598-2.437-.598-3.832zm1.407-.668v.668c0 1.102.152 2.151.457 3.147a8.53 8.53 0 001.371 2.636 6.568 6.568 0 002.197 1.811c.867.434 1.863.65 2.988.65 1.102 0 2.086-.216 2.953-.65a6.393 6.393 0 002.18-1.811 8.264 8.264 0 001.354-2.636c.316-.996.474-2.045.474-3.147v-.668c0-1.078-.158-2.109-.474-3.094a8.264 8.264 0 00-1.354-2.636 6.487 6.487 0 00-2.197-1.828c-.867-.457-1.858-.686-2.971-.686s-2.103.229-2.971.686a6.714 6.714 0 00-2.197 1.828 8.242 8.242 0 00-1.353 2.636 10.398 10.398 0 00-.457 3.094zm21.146-5.15V271h-1.406v-19.02h1.371l.035 4.026zm-.228 4.025l-.704-.808a9.965 9.965 0 01.704-2.883 8.586 8.586 0 011.529-2.426 7.247 7.247 0 012.267-1.67c.879-.41 1.858-.615 2.936-.615.949 0 1.799.129 2.549.387a4.659 4.659 0 011.933 1.177c.528.528.932 1.219 1.213 2.075.281.855.422 1.88.422 3.076V271h-1.406v-12.621c0-1.43-.211-2.537-.633-3.322-.422-.786-1.008-1.336-1.758-1.653-.75-.328-1.611-.492-2.584-.492-1.148 0-2.127.252-2.935.756a6.352 6.352 0 00-1.987 1.881 8.741 8.741 0 00-1.125 2.338c-.246.808-.386 1.523-.421 2.144zm12.832-1.564l-.95-.334c.094-.856.334-1.67.721-2.444a7.337 7.337 0 011.564-2.074 7.207 7.207 0 012.268-1.441c.879-.363 1.852-.545 2.918-.545.973 0 1.84.135 2.602.404a4.428 4.428 0 011.933 1.248c.528.563.932 1.289 1.213 2.18.281.879.422 1.945.422 3.199V271h-1.406v-12.357c0-1.5-.211-2.666-.633-3.498-.422-.833-1.008-1.413-1.758-1.741-.75-.34-1.617-.504-2.602-.492-1.042.012-1.951.205-2.724.58-.774.375-1.418.85-1.934 1.424a6.561 6.561 0 00-1.177 1.811c-.27.621-.422 1.201-.457 1.74zm19.652-2.83v22.675h-1.406V251.98h1.353l.053 3.657zm13.465 5.66v.369c0 1.441-.164 2.754-.492 3.938-.317 1.183-.786 2.203-1.407 3.058a6.376 6.376 0 01-2.25 1.986c-.89.469-1.904.704-3.041.704-1.09 0-2.068-.159-2.935-.475a6.826 6.826 0 01-2.25-1.371 7.237 7.237 0 01-1.53-2.004 8.698 8.698 0 01-.808-2.443v-6.61a11.27 11.27 0 01.896-2.724 8.08 8.08 0 011.53-2.163 6.29 6.29 0 012.197-1.423c.844-.34 1.799-.51 2.865-.51 1.137 0 2.15.228 3.041.685a6.245 6.245 0 012.285 1.934c.621.832 1.09 1.846 1.407 3.041.328 1.184.492 2.52.492 4.008zm-1.424.369v-.369c0-1.195-.123-2.303-.369-3.322-.235-1.02-.598-1.905-1.09-2.655a5.34 5.34 0 00-1.863-1.758c-.75-.421-1.635-.632-2.655-.632-1.113 0-2.056.187-2.83.562-.773.363-1.412.838-1.916 1.424a6.886 6.886 0 00-1.142 1.898c-.27.668-.469 1.301-.598 1.899v6.24a7.218 7.218 0 001.125 2.567c.539.773 1.254 1.394 2.145 1.863.902.457 1.986.685 3.251.685 1.02 0 1.899-.211 2.637-.632a5.395 5.395 0 001.846-1.758c.492-.75.855-1.635 1.09-2.655.246-1.031.369-2.15.369-3.357zm18.211 5.836v-9.826c0-.996-.211-1.852-.633-2.567-.422-.714-1.037-1.259-1.846-1.634-.808-.387-1.799-.58-2.97-.58-1.09 0-2.069.193-2.936.58-.855.375-1.529.89-2.021 1.546a3.572 3.572 0 00-.739 2.198l-1.406-.018c0-.726.17-1.424.51-2.092a5.727 5.727 0 011.476-1.775 7.46 7.46 0 012.268-1.248c.879-.305 1.84-.457 2.883-.457 1.336 0 2.513.228 3.533.685 1.031.446 1.834 1.12 2.408 2.022.574.902.861 2.027.861 3.375v9.387c0 .679.047 1.365.141 2.056.094.692.223 1.248.387 1.67V271h-1.529a9.744 9.744 0 01-.299-1.635 20.43 20.43 0 01-.088-1.863zm.457-7.295l.035 1.213h-4.641c-1.171 0-2.22.111-3.146.334-.926.223-1.711.539-2.356.949-.644.41-1.136.897-1.476 1.459a3.599 3.599 0 00-.51 1.899c0 .726.193 1.394.58 2.003.387.61.932 1.096 1.635 1.459.703.352 1.518.528 2.443.528 1.266 0 2.385-.217 3.358-.651.984-.445 1.81-1.043 2.478-1.793a7.08 7.08 0 001.459-2.636l.615 1.019a7.573 7.573 0 01-.931 1.881 7.586 7.586 0 01-1.635 1.74c-.668.516-1.453.938-2.355 1.266-.903.316-1.928.475-3.077.475-1.207 0-2.261-.223-3.164-.668-.89-.457-1.582-1.079-2.074-1.864-.492-.797-.738-1.705-.738-2.724 0-.879.199-1.682.598-2.408.398-.727.972-1.348 1.722-1.864.762-.527 1.682-.926 2.76-1.195 1.09-.281 2.314-.422 3.674-.422h4.746zm8.262-4.166V271h-1.389v-19.02h1.371l.018 4.061zm-.264 3.99l-.686-.808c.106-1.008.352-1.969.739-2.883a8.708 8.708 0 011.564-2.426 7.463 7.463 0 012.285-1.67c.879-.41 1.846-.615 2.901-.615.949 0 1.798.135 2.548.404.75.258 1.383.668 1.899 1.231.527.562.926 1.289 1.195 2.179.27.879.405 1.952.405 3.217V271h-1.389v-12.34c0-1.5-.205-2.66-.615-3.48-.411-.832-.985-1.418-1.723-1.758-.727-.34-1.576-.51-2.549-.51-1.125 0-2.098.252-2.918.756a6.554 6.554 0 00-2.004 1.881 9.496 9.496 0 00-1.213 2.338c-.269.808-.416 1.523-.439 2.144zm24.451 9.106l6.328-17.157h1.53l-8.297 22.131c-.153.422-.346.891-.58 1.407a7.244 7.244 0 01-.915 1.511 4.286 4.286 0 01-1.458 1.178c-.586.316-1.313.475-2.18.475-.199 0-.463-.024-.791-.071-.317-.035-.551-.082-.703-.14l-.018-1.231c.164.035.381.065.65.088.27.035.458.053.563.053.773 0 1.418-.152 1.934-.457a3.679 3.679 0 001.318-1.266 9.47 9.47 0 00.932-1.916l1.687-4.605zm-6.521-17.157l6.75 17.28.404 1.441-1.072.668-7.612-19.389h1.53z" fill="#000"/></svg>