<svg width="748" height="140" fill="none" xmlns="http://www.w3.org/2000/svg"><g clip-path="url(#clip0_5_2)"><path fill="#fff" d="M0 0h748v140H0z"/><path d="M43.25 100.125H20.625V83.187H43.25c3.083 0 5.583-.52 7.5-1.562 1.917-1.042 3.313-2.48 4.188-4.313.916-1.874 1.374-3.979 1.374-6.312 0-2.5-.458-4.813-1.374-6.938a11.2 11.2 0 00-4.188-5.124c-1.917-1.334-4.417-2-7.5-2H28.875V131H6.937V40H43.25c7.292 0 13.563 1.333 18.813 4 5.291 2.667 9.354 6.333 12.187 11 2.833 4.625 4.25 9.917 4.25 15.875 0 5.875-1.417 11-4.25 15.375s-6.896 7.792-12.188 10.25c-5.25 2.417-11.52 3.625-18.812 3.625zm107.188 14V131h-46v-16.875h46zM112.25 40v91H90.312V40h21.938zm87.25 19.125L177.312 131H153.75l33.438-91h14.937L199.5 59.125zM217.875 131l-22.25-71.875L192.75 40h15.125l33.625 91h-23.625zM217 97.062V114h-46.688V97.062H217zm78.062 9.75c0-1.416-.208-2.687-.624-3.812-.417-1.167-1.188-2.25-2.313-3.25-1.125-1-2.75-2-4.875-3-2.083-1.042-4.833-2.125-8.25-3.25a123.23 123.23 0 01-11.562-4.5c-3.709-1.708-7.021-3.688-9.938-5.938-2.917-2.291-5.229-4.958-6.938-8-1.708-3.083-2.562-6.666-2.562-10.75 0-3.916.875-7.437 2.625-10.562 1.75-3.167 4.187-5.854 7.313-8.063 3.166-2.25 6.874-3.958 11.124-5.124 4.25-1.209 8.896-1.813 13.938-1.813 6.667 0 12.542 1.167 17.625 3.5 5.125 2.292 9.125 5.563 12 9.813C315.542 56.27 317 61.25 317 67h-21.812c0-2.292-.48-4.313-1.438-6.063-.917-1.75-2.312-3.124-4.188-4.124-1.874-1-4.229-1.5-7.062-1.5-2.75 0-5.062.416-6.938 1.25-1.874.833-3.291 1.958-4.25 3.374a7.804 7.804 0 00-1.437 4.563c0 1.375.375 2.625 1.125 3.75.792 1.083 1.896 2.104 3.312 3.063 1.459.958 3.209 1.874 5.25 2.75 2.084.874 4.417 1.729 7 2.562 4.834 1.542 9.126 3.27 12.876 5.188 3.791 1.874 6.979 4.02 9.562 6.437 2.625 2.375 4.604 5.083 5.938 8.125 1.374 3.042 2.062 6.479 2.062 10.313 0 4.083-.792 7.708-2.375 10.874-1.583 3.167-3.854 5.855-6.813 8.063-2.958 2.167-6.5 3.813-10.624 4.937-4.126 1.126-8.73 1.688-13.813 1.688-4.667 0-9.271-.583-13.813-1.75-4.5-1.208-8.583-3.042-12.25-5.5-3.666-2.5-6.604-5.688-8.812-9.562-2.167-3.917-3.25-8.563-3.25-13.938h22c0 2.667.354 4.917 1.062 6.75.709 1.833 1.75 3.312 3.126 4.438 1.374 1.083 3.062 1.874 5.062 2.374 2 .459 4.292.688 6.875.688 2.792 0 5.042-.396 6.75-1.188 1.708-.833 2.958-1.916 3.75-3.25.792-1.374 1.187-2.874 1.187-4.5zM372.375 40v91h-21.937V40h21.937zm27.375 0v16.938h-76.062V40h76.062zm32.625 0v91H410.5V40h21.875zm55.563 43.625v16.313h-37.563V83.624h37.563zm53.812 16.5h-22.625V83.187h22.625c3.083 0 5.583-.52 7.5-1.562 1.917-1.042 3.312-2.48 4.188-4.313.916-1.874 1.374-3.979 1.374-6.312 0-2.5-.458-4.813-1.374-6.938a11.2 11.2 0 00-4.188-5.124c-1.917-1.334-4.417-2-7.5-2h-14.375V131h-21.937V40h36.312c7.292 0 13.562 1.333 18.812 4 5.292 2.667 9.355 6.333 12.188 11 2.833 4.625 4.25 9.917 4.25 15.875 0 5.875-1.417 11-4.25 15.375s-6.896 7.792-12.188 10.25c-5.25 2.417-11.52 3.625-18.812 3.625zm74.5-41L594.062 131H570.5l33.438-91h14.937l-2.625 19.125zM634.625 131l-22.25-71.875L609.5 40h15.125l33.625 91h-23.625zm-.875-33.938V114h-46.688V97.062h46.688zM686.875 40v91h-21.937V40h21.937zm54.313 0l-35.25 46.125-20.626 22.563-4-20.126 13.188-20L714.125 40h27.063zm-25.938 91l-23.5-41 17.062-12.563L741.188 131H715.25z" fill="#004D90"/><path d="M237.07 24.024V25h-10.177v-.976h10.177zm-9.703-18.22V25h-1.081V5.805h1.081zm13.83 4.931V25h-1.055V10.735h1.055zm-1.385-4.324c0-.237.08-.44.238-.606a.836.836 0 01.633-.264.82.82 0 01.619.264c.167.167.251.369.251.606s-.084.44-.251.607a.865.865 0 01-.619.237.884.884 0 01-.633-.237.851.851 0 01-.238-.607zm6.869 7.343V25h-1.055V10.735h1.029l.026 3.02zm-.171 3.02l-.528-.607a7.522 7.522 0 01.528-2.162 6.446 6.446 0 011.147-1.82 5.438 5.438 0 011.7-1.252c.66-.307 1.393-.461 2.202-.461.712 0 1.349.096 1.912.29a3.5 3.5 0 011.45.883c.395.396.699.914.91 1.556.211.641.316 1.41.316 2.307V25h-1.055v-9.466c0-1.072-.158-1.903-.474-2.492-.317-.588-.756-1.002-1.319-1.239-.562-.246-1.208-.369-1.938-.369-.861 0-1.595.189-2.201.567-.607.37-1.103.84-1.49 1.41a6.576 6.576 0 00-.844 1.754c-.184.607-.29 1.143-.316 1.608zm9.624-1.174l-.712-.25c.07-.642.25-1.253.54-1.833a5.493 5.493 0 011.174-1.556 5.398 5.398 0 011.7-1.08c.66-.273 1.389-.41 2.189-.41.729 0 1.38.102 1.951.304a3.31 3.31 0 011.45.936c.396.422.699.967.91 1.635.211.659.316 1.459.316 2.4V25h-1.054v-9.268c0-1.125-.159-2-.475-2.624-.316-.624-.756-1.059-1.318-1.305-.563-.255-1.213-.378-1.951-.369-.783.009-1.464.154-2.044.435a4.645 4.645 0 00-1.45 1.068c-.387.43-.681.883-.883 1.358-.203.466-.317.9-.343 1.305zm14.937-4.865V25h-1.055V10.735h1.055zm-1.384-4.324a.85.85 0 01.237-.606.836.836 0 01.633-.264.82.82 0 01.619.264c.167.167.251.369.251.606s-.084.44-.251.607a.865.865 0 01-.619.237.884.884 0 01-.633-.237.85.85 0 01-.237-.607zm10.995 4.324v.95h-6.829v-.95h6.829zm-4.193-3.77h1.055v14.594c0 .765.092 1.345.277 1.74.193.387.444.65.751.791.317.132.655.198 1.015.198.255 0 .488-.013.699-.04.22-.026.44-.057.659-.092l.093.923a3.546 3.546 0 01-.752.132c-.307.035-.58.053-.817.053-.598 0-1.121-.11-1.569-.33-.448-.22-.796-.598-1.042-1.134-.246-.545-.369-1.292-.369-2.24V6.964zm13.012 18.299a6.017 6.017 0 01-2.491-.514 6.2 6.2 0 01-2.004-1.464 6.991 6.991 0 01-1.345-2.241c-.316-.861-.474-1.806-.474-2.835v-.58c0-1.063.158-2.03.474-2.9.325-.879.765-1.635 1.318-2.268a5.808 5.808 0 011.912-1.476 5.421 5.421 0 012.334-.514c.835 0 1.59.154 2.267.461a5.057 5.057 0 011.74 1.292 5.709 5.709 0 011.108 1.978c.255.764.382 1.608.382 2.53v.884h-10.876v-.962h9.835v-.172a5.918 5.918 0 00-.554-2.491 4.534 4.534 0 00-1.516-1.846c-.659-.475-1.455-.712-2.386-.712-.747 0-1.429.158-2.044.475a4.797 4.797 0 00-1.569 1.318 6.03 6.03 0 00-1.015 1.964 8.028 8.028 0 00-.356 2.44v.58c0 .843.132 1.634.396 2.373a6.256 6.256 0 001.107 1.95 5.247 5.247 0 001.674 1.306 4.706 4.706 0 002.11.474c.826 0 1.582-.145 2.267-.435.686-.29 1.31-.8 1.872-1.529l.686.514a5.813 5.813 0 01-1.147 1.226 5.23 5.23 0 01-1.595.857c-.607.211-1.31.317-2.11.317zm17.93-3.033V4.75h1.042V25h-1.002l-.04-2.769zM297.333 18v-.276c0-1.117.123-2.118.369-3.006.246-.897.602-1.657 1.068-2.281a4.702 4.702 0 011.7-1.45c.677-.343 1.442-.514 2.294-.514.8 0 1.512.127 2.136.382a4.613 4.613 0 011.621 1.068c.458.457.831.997 1.121 1.621.299.616.519 1.297.659 2.044v4.917a6.373 6.373 0 01-.593 1.86 5.26 5.26 0 01-1.121 1.515 4.958 4.958 0 01-1.648 1.015c-.641.247-1.375.37-2.201.37-.844 0-1.6-.176-2.268-.528a4.904 4.904 0 01-1.7-1.49c-.466-.641-.822-1.406-1.068-2.293-.246-.888-.369-1.872-.369-2.953zm1.067-.276V18c0 .905.088 1.74.264 2.504.185.765.457 1.429.817 1.991.37.563.831 1.002 1.385 1.319.562.316 1.221.474 1.977.474.967 0 1.784-.176 2.452-.527a4.336 4.336 0 001.596-1.398 5.41 5.41 0 00.843-1.924v-4.654a8.016 8.016 0 00-.461-1.424 5.168 5.168 0 00-.857-1.424c-.36-.44-.831-.795-1.411-1.068-.58-.281-1.292-.422-2.135-.422-.765 0-1.429.159-1.991.475a4.039 4.039 0 00-1.384 1.318c-.37.563-.646 1.226-.831 1.991a11.1 11.1 0 00-.264 2.492zm32.116 6.301V25h-10.178v-.976h10.178zm-9.704-18.22V25h-1.081V5.805h1.081zm13.83 4.931V25h-1.055V10.735h1.055zm-1.384-4.324a.85.85 0 01.237-.606.836.836 0 01.633-.264.82.82 0 01.62.264c.167.167.25.369.25.606s-.083.44-.25.607a.867.867 0 01-.62.237.884.884 0 01-.633-.237.85.85 0 01-.237-.607zm14.779 15.966v-7.37c0-.747-.159-1.389-.475-1.925-.316-.536-.778-.945-1.384-1.226-.607-.29-1.349-.435-2.228-.435-.818 0-1.552.145-2.202.435-.642.281-1.147.668-1.516 1.16a2.681 2.681 0 00-.554 1.648l-1.054-.013c0-.545.127-1.068.382-1.569a4.32 4.32 0 011.107-1.332 5.59 5.59 0 011.701-.935 6.559 6.559 0 012.162-.343c1.002 0 1.885.171 2.65.514.773.334 1.375.84 1.806 1.516.431.677.646 1.52.646 2.531v7.04c0 .51.035 1.024.106 1.543.07.518.167.936.29 1.252V25h-1.147a7.244 7.244 0 01-.224-1.226c-.044-.483-.066-.95-.066-1.398zm.342-5.472l.027.91h-3.481c-.879 0-1.665.083-2.36.25-.694.167-1.283.405-1.766.712-.484.308-.853.673-1.108 1.095a2.707 2.707 0 00-.382 1.423c0 .545.145 1.046.435 1.503a3.1 3.1 0 001.226 1.095c.528.263 1.138.395 1.833.395.949 0 1.788-.163 2.518-.488a5.474 5.474 0 001.859-1.344 5.33 5.33 0 001.094-1.978l.461.765a5.683 5.683 0 01-.698 1.41c-.317.475-.725.91-1.226 1.306a6.506 6.506 0 01-1.767.949c-.677.237-1.446.356-2.307.356-.905 0-1.696-.167-2.373-.501-.668-.343-1.187-.809-1.556-1.398-.369-.597-.554-1.279-.554-2.043 0-.66.15-1.261.449-1.806a4.052 4.052 0 011.292-1.398c.571-.395 1.261-.694 2.069-.896.818-.211 1.736-.317 2.756-.317h3.559zm5.129-12.155h1.054v17.481L354.523 25h-1.015V4.75zm11.153 12.973V18c0 1.08-.123 2.065-.369 2.953-.237.887-.589 1.652-1.055 2.294a4.794 4.794 0 01-1.687 1.49c-.668.35-1.428.527-2.281.527-.817 0-1.551-.123-2.202-.37a5.122 5.122 0 01-1.661-1.015 5.475 5.475 0 01-1.134-1.516 6.963 6.963 0 01-.593-1.859v-4.917c.15-.747.374-1.428.673-2.043a5.811 5.811 0 011.133-1.622 4.617 4.617 0 011.622-1.068c.633-.255 1.345-.382 2.136-.382.861 0 1.626.171 2.294.514a4.574 4.574 0 011.7 1.45c.466.624.818 1.384 1.055 2.28.246.889.369 1.89.369 3.007zm-1.068.277v-.277c0-.897-.088-1.727-.263-2.492-.176-.765-.449-1.428-.818-1.99a3.895 3.895 0 00-1.384-1.32c-.563-.316-1.226-.474-1.991-.474-.844 0-1.555.14-2.136.422a4.135 4.135 0 00-1.41 1.068 5.62 5.62 0 00-.857 1.424 8.709 8.709 0 00-.448 1.424v4.654c.158.694.435 1.335.83 1.924a4.45 4.45 0 001.609 1.398c.676.351 1.489.527 2.439.527.755 0 1.41-.158 1.964-.474a3.895 3.895 0 001.384-1.319c.361-.562.629-1.226.804-1.99.185-.765.277-1.6.277-2.505zm6.038-7.265V25h-1.054V10.735h1.054zm-1.384-4.324a.85.85 0 01.237-.606.836.836 0 01.633-.264.82.82 0 01.62.264c.167.167.25.369.25.606s-.083.44-.25.607a.867.867 0 01-.62.237.884.884 0 01-.633-.237.85.85 0 01-.237-.607zm7.159-1.661V25h-1.055V4.75h1.055zm5.774 5.985V25h-1.055V10.735h1.055zm-1.384-4.324a.85.85 0 01.237-.606.836.836 0 01.633-.264.82.82 0 01.62.264c.167.167.25.369.25.606s-.083.44-.25.607a.867.867 0 01-.62.237.884.884 0 01-.633-.237.85.85 0 01-.237-.607zm10.995 4.324v.95h-6.829v-.95h6.829zm-4.192-3.77h1.054V21.56c0 .765.093 1.345.277 1.74.194.387.444.65.752.791.316.132.654.198 1.015.198.255 0 .488-.013.699-.04.219-.026.439-.057.659-.092l.092.923a3.535 3.535 0 01-.751.132 7.303 7.303 0 01-.818.053c-.598 0-1.12-.11-1.569-.33-.448-.22-.795-.598-1.041-1.134-.246-.545-.369-1.292-.369-2.24V6.964zm12.089 16.637l4.746-12.867h1.147l-6.223 16.599c-.114.316-.259.668-.435 1.054a5.392 5.392 0 01-.685 1.134 3.21 3.21 0 01-1.094.883c-.44.238-.985.356-1.635.356-.15 0-.347-.017-.593-.052a2.27 2.27 0 01-.528-.106l-.013-.923c.123.026.286.049.488.066.202.027.343.04.422.04.58 0 1.063-.115 1.45-.343a2.76 2.76 0 00.989-.95c.263-.404.496-.883.698-1.436l1.266-3.454zm-4.891-12.867l5.062 12.96.304 1.08-.805.502-5.708-14.542h1.147zm32.471 8.346h1.068c-.132 1.344-.492 2.478-1.081 3.4a5.68 5.68 0 01-2.373 2.084c-.985.466-2.145.699-3.481.699-1.063 0-2.03-.203-2.9-.607a6.588 6.588 0 01-2.228-1.74c-.615-.756-1.09-1.657-1.424-2.703-.334-1.045-.501-2.201-.501-3.467v-2.69c0-1.274.167-2.43.501-3.467.334-1.046.809-1.942 1.424-2.69a6.342 6.342 0 012.241-1.74c.879-.412 1.859-.619 2.94-.619 1.31 0 2.457.233 3.441.699a5.581 5.581 0 012.36 2.083c.589.914.949 2.043 1.081 3.388h-1.068c-.132-1.116-.435-2.057-.91-2.821a4.555 4.555 0 00-1.924-1.767c-.818-.404-1.811-.606-2.98-.606-.923 0-1.753.18-2.492.54a5.299 5.299 0 00-1.898 1.53c-.527.659-.936 1.45-1.226 2.373-.281.913-.422 1.938-.422 3.071v2.716c0 1.116.141 2.14.422 3.072.281.923.681 1.718 1.2 2.386a5.504 5.504 0 001.885 1.543c.738.36 1.564.54 2.478.54 1.169 0 2.167-.184 2.993-.554a4.374 4.374 0 001.951-1.727c.484-.773.791-1.749.923-2.926zm3.942-.963v-.5c0-1.047.149-2.005.448-2.875.308-.87.738-1.621 1.292-2.254a5.767 5.767 0 011.978-1.49c.773-.351 1.63-.527 2.571-.527.94 0 1.797.176 2.57.527a5.73 5.73 0 011.991 1.49 6.546 6.546 0 011.292 2.254c.299.87.448 1.828.448 2.874v.501c0 1.046-.149 2.004-.448 2.874a6.817 6.817 0 01-1.279 2.268 5.8 5.8 0 01-1.99 1.476c-.765.352-1.618.528-2.558.528-.949 0-1.811-.176-2.584-.528a5.98 5.98 0 01-1.991-1.476 7.004 7.004 0 01-1.292-2.268c-.299-.87-.448-1.828-.448-2.874zm1.055-.5v.5c0 .826.114 1.613.342 2.36a6.436 6.436 0 001.029 1.978 4.927 4.927 0 001.648 1.358c.65.325 1.397.487 2.241.487.826 0 1.564-.162 2.215-.487a4.813 4.813 0 001.635-1.358 6.22 6.22 0 001.015-1.978 7.757 7.757 0 00.356-2.36v-.5c0-.81-.119-1.583-.356-2.321a6.216 6.216 0 00-1.015-1.978 4.882 4.882 0 00-1.648-1.37c-.651-.344-1.394-.515-2.228-.515-.835 0-1.578.171-2.228.514a5.04 5.04 0 00-1.648 1.371 6.198 6.198 0 00-1.016 1.978 7.819 7.819 0 00-.342 2.32zm15.86-3.864V25h-1.055V10.735h1.028l.027 3.02zm-.172 3.02l-.527-.607c.07-.756.246-1.477.527-2.162a6.446 6.446 0 011.147-1.82 5.43 5.43 0 011.701-1.252c.659-.307 1.393-.461 2.201-.461.712 0 1.35.096 1.912.29a3.493 3.493 0 011.45.883c.396.396.699.914.91 1.556.211.641.316 1.41.316 2.307V25h-1.054v-9.466c0-1.072-.159-1.903-.475-2.492-.316-.588-.756-1.002-1.318-1.239-.563-.246-1.209-.369-1.938-.369-.862 0-1.596.189-2.202.567-.606.37-1.103.84-1.49 1.41a6.543 6.543 0 00-.843 1.754c-.185.607-.291 1.143-.317 1.608zm9.624-1.174l-.712-.25a5.393 5.393 0 011.714-3.389 5.391 5.391 0 011.701-1.08c.659-.273 1.388-.41 2.188-.41.73 0 1.38.102 1.951.304a3.32 3.32 0 011.451.936c.395.422.698.967.909 1.635.211.659.317 1.459.317 2.4V25h-1.055v-9.268c0-1.125-.158-2-.475-2.624-.316-.624-.755-1.059-1.318-1.305-.562-.255-1.213-.378-1.951-.369-.782.009-1.464.154-2.044.435a4.645 4.645 0 00-1.45 1.068c-.386.43-.681.883-.883 1.358-.202.466-.316.9-.343 1.305zm14.739-2.123v17.007h-1.054v-19.75h1.015l.039 2.742zm10.099 4.246V18c0 1.08-.123 2.065-.369 2.953-.237.887-.589 1.652-1.055 2.294a4.794 4.794 0 01-1.687 1.49c-.668.35-1.429.527-2.281.527-.817 0-1.551-.119-2.202-.356a5.116 5.116 0 01-1.687-1.029 5.416 5.416 0 01-1.147-1.503 6.54 6.54 0 01-.607-1.832v-4.957c.15-.747.374-1.428.673-2.043a6.045 6.045 0 011.147-1.622 4.722 4.722 0 011.648-1.068c.632-.255 1.349-.382 2.149-.382.852 0 1.612.171 2.28.514a4.679 4.679 0 011.714 1.45c.466.624.818 1.384 1.055 2.28.246.889.369 1.89.369 3.007zm-1.068.277v-.277c0-.897-.092-1.727-.277-2.492-.175-.765-.448-1.428-.817-1.99a4.001 4.001 0 00-1.398-1.32c-.562-.316-1.226-.474-1.99-.474-.835 0-1.543.14-2.123.422a4.244 4.244 0 00-1.437 1.068c-.369.44-.655.914-.857 1.424a8.807 8.807 0 00-.448 1.424v4.68c.158.703.439 1.345.844 1.925a4.44 4.44 0 001.608 1.397c.677.343 1.49.514 2.439.514.765 0 1.424-.158 1.978-.474a4.048 4.048 0 001.384-1.319c.369-.562.642-1.226.817-1.99.185-.774.277-1.613.277-2.518zm13.658 4.377v-7.37c0-.747-.158-1.389-.474-1.925-.317-.536-.778-.945-1.385-1.226-.606-.29-1.349-.435-2.228-.435-.817 0-1.551.145-2.201.435-.642.281-1.147.668-1.516 1.16a2.681 2.681 0 00-.554 1.648l-1.055-.013c0-.545.128-1.068.383-1.569.263-.5.632-.945 1.107-1.332a5.567 5.567 0 011.701-.935 6.559 6.559 0 012.162-.343c1.002 0 1.885.171 2.65.514.773.334 1.375.84 1.806 1.516.431.677.646 1.52.646 2.531v7.04c0 .51.035 1.024.105 1.543.071.518.167.936.29 1.252V25h-1.147a7.45 7.45 0 01-.224-1.226c-.044-.483-.066-.95-.066-1.398zm.343-5.472l.027.91h-3.481c-.879 0-1.665.083-2.36.25-.694.167-1.283.405-1.766.712-.484.308-.853.673-1.108 1.095a2.698 2.698 0 00-.382 1.423c0 .545.145 1.046.435 1.503a3.1 3.1 0 001.226 1.095c.527.263 1.138.395 1.832.395.95 0 1.789-.163 2.519-.488a5.47 5.47 0 001.858-1.344 5.332 5.332 0 001.095-1.978l.461.765a5.653 5.653 0 01-.699 1.41c-.316.475-.725.91-1.226 1.306a6.514 6.514 0 01-1.766.949c-.677.237-1.446.356-2.307.356-.906 0-1.697-.167-2.373-.501-.668-.343-1.187-.809-1.556-1.398-.369-.597-.554-1.279-.554-2.043 0-.66.15-1.261.448-1.806a4.075 4.075 0 011.292-1.398c.572-.395 1.262-.694 2.07-.896.818-.211 1.736-.317 2.756-.317h3.559zm6.196-3.124V25h-1.041V10.735h1.028l.013 3.046zm-.197 2.992l-.514-.606a7.524 7.524 0 01.553-2.162 6.523 6.523 0 011.174-1.82 5.597 5.597 0 011.713-1.252 5.086 5.086 0 012.176-.461c.712 0 1.349.1 1.911.303a3.392 3.392 0 011.424.923c.396.422.695.967.897 1.634.202.66.303 1.464.303 2.413V25h-1.042v-9.255c0-1.125-.153-1.995-.461-2.61-.308-.624-.738-1.064-1.292-1.319-.545-.255-1.182-.382-1.912-.382-.843 0-1.573.189-2.188.567a4.92 4.92 0 00-1.503 1.41 7.086 7.086 0 00-.91 1.754c-.202.607-.312 1.143-.329 1.608zm18.338 6.83l4.746-12.868h1.147l-6.223 16.599c-.114.316-.259.668-.435 1.054a5.392 5.392 0 01-.685 1.134 3.21 3.21 0 01-1.094.883c-.44.238-.985.356-1.635.356-.15 0-.347-.017-.593-.052a2.282 2.282 0 01-.528-.106l-.013-.923c.123.026.286.049.488.066.202.027.343.04.422.04.58 0 1.063-.115 1.45-.343a2.76 2.76 0 00.989-.95c.263-.404.496-.883.698-1.436l1.266-3.454zm-4.891-12.868l5.062 12.96.304 1.08-.805.502-5.708-14.542h1.147z" fill="#000"/></g><defs><clipPath id="clip0_5_2"><path fill="#fff" d="M0 0h748v140H0z"/></clipPath></defs></svg>